<?xml version="1.0" standalone="no"?>
<!DOCTYPE svg PUBLIC "-//W3C//DTD SVG 20010904//EN"
 "http://www.w3.org/TR/2001/REC-SVG-20010904/DTD/svg10.dtd">
<svg version="1.0" xmlns="http://www.w3.org/2000/svg"
 width="64.000000pt" height="64.000000pt" viewBox="0 0 64.000000 64.000000"
 preserveAspectRatio="xMidYMid meet">

<g transform="translate(0.000000,64.000000) scale(0.100000,-0.100000)"
fill="#000000" stroke="none">
<path d="M232 600 c-24 -11 -56 -33 -71 -49 -23 -25 -37 -30 -82 -33 l-54 -3
0 -205 0 -205 117 -3 117 -3 -13 -37 c-11 -31 -18 -38 -44 -40 -18 -2 -32 -7
-32 -13 0 -5 63 -9 150 -9 87 0 150 4 150 9 0 6 -14 11 -32 13 -26 2 -33 9
-44 40 l-13 37 117 3 117 3 0 205 0 205 -55 3 c-46 3 -60 8 -84 33 -42 43 -81
61 -145 66 -42 3 -67 -1 -99 -17z m198 -34 c59 -39 85 -89 85 -166 0 -86 -30
-140 -79 -140 -18 0 -37 5 -44 12 -7 7 -12 8 -12 2 0 -17 -109 -15 -141 1 -34
18 -69 81 -69 125 0 76 74 150 150 150 50 0 107 -35 130 -80 23 -45 30 -49 30
-19 0 33 -79 106 -123 114 -62 12 -107 -3 -153 -49 -67 -66 -72 -154 -12 -221
l30 -35 -25 0 c-52 0 -91 113 -68 198 14 51 75 117 123 131 53 16 135 6 178
-23z m-315 -83 c-4 -10 -10 -43 -12 -73 -4 -44 0 -64 20 -102 l24 -48 -23 0
c-13 0 -24 -4 -24 -10 0 -6 80 -10 220 -10 140 0 220 4 220 10 0 6 -11 10 -24
10 l-23 0 24 48 c20 38 24 58 20 102 -2 30 -8 63 -12 73 -6 15 -1 17 34 17
l41 0 0 -150 0 -150 -120 0 c-73 0 -120 -4 -120 -10 0 -6 47 -10 120 -10 l120
0 0 -30 0 -30 -280 0 -280 0 0 30 0 30 120 0 c73 0 120 4 120 10 0 6 -47 10
-120 10 l-120 0 0 150 0 150 41 0 c35 0 40 -2 34 -17z m261 -426 l13 -37 -69
0 c-51 0 -68 3 -65 13 25 71 23 68 67 65 38 -3 42 -6 54 -41z"/>
<path d="M297 480 c-12 -12 -17 -29 -15 -52 2 -28 7 -34 31 -36 21 -3 27 -9
27 -28 0 -17 -5 -24 -20 -24 -11 0 -20 5 -20 10 0 6 -4 10 -10 10 -17 0 -11
-25 10 -43 20 -16 22 -16 41 2 15 13 19 29 17 52 -2 29 -7 35 -30 37 -22 3
-28 9 -28 28 0 17 5 24 20 24 11 0 20 -4 20 -10 0 -5 5 -10 10 -10 17 0 11 25
-10 43 -24 20 -21 20 -43 -3z"/>
<path d="M450 380 c0 -5 9 -10 20 -10 11 0 20 5 20 10 0 6 -9 10 -20 10 -11 0
-20 -4 -20 -10z"/>
<path d="M445 330 c3 -5 13 -10 21 -10 8 0 12 5 9 10 -3 6 -13 10 -21 10 -8 0
-12 -4 -9 -10z"/>
<path d="M422 289 c2 -7 10 -15 17 -17 8 -3 12 1 9 9 -2 7 -10 15 -17 17 -8 3
-12 -1 -9 -9z"/>
<path d="M300 190 c0 -5 9 -10 20 -10 11 0 20 5 20 10 0 6 -9 10 -20 10 -11 0
-20 -4 -20 -10z"/>
</g>
</svg>
